# File created by Blade
# Date/Time:  Tue Apr 07 20:22:14 2015
# Frame Rate: 120.000 fps
#------------------------------------------------------
:FULLY-SPECIFIED
:DEGREES
698
root 5.074366 34.573940 -11.770375 35.216078 -31.161492 -55.825398
Spine 1.976882 22.736313 28.439471
Head 1.441767 4.296841 13.713973
LeftShoulder -22.600851 41.225120 18.822863
LeftArm 57.082479 -53.660763 -72.891241
LeftForeArm 0.888765 -0.000000 2.999308
LeftHand 11.355307 -0.000000 8.575889
LeftHandThumb1 -26.253704 0.000000 33.147579
RightShoulder 6.614830 12.276044 -17.414641
RightArm 20.387734 12.288045 52.847706
RightForeArm 1.783294 -0.000000 7.350070
RightHand 2.443479 -0.000000 4.847542
RightHandThumb1 -24.326973 -0.000000 -32.862282
LeftUpLeg -6.352822 8.699036 41.174415
LeftLeg 13.314669 -0.000000 -0.000000
LeftFoot -13.927115 27.557531 -15.237441
LeftToeBase -4.257506 -0.000000 0.000000
RightUpLeg -68.801743 -45.336136 -26.280538
RightLeg 22.551915 -0.000000 -0.000000
RightFoot 44.864935 -15.642586 -4.732469
RightToeBase 32.874884 -0.000000 -0.000000
699
root 5.070899 34.554605 -11.770513 34.991439 -31.474375 -55.836057
Spine 2.323023 22.736450 28.297471
Head 1.418168 4.310492 14.023043
LeftShoulder -22.590051 41.252642 18.956287
LeftArm 57.148702 -53.751401 -72.971688
LeftForeArm 1.008115 -0.000000 2.870378
LeftHand 11.337726 0.000000 8.607679
LeftHandThumb1 -26.253704 0.000000 33.147579
RightShoulder 6.648581 12.309615 -17.197241
RightArm 20.354400 12.163401 52.708024
RightForeArm 1.854379 -0.000000 7.584487
RightHand 2.467944 -0.000000 4.754022
RightHandThumb1 -24.326973 -0.000000 -32.862282
LeftUpLeg -6.164113 8.585036 41.131384
LeftLeg 13.773384 -0.000000 -0.000000
LeftFoot -14.288495 27.175138 -15.797442
LeftToeBase -4.546741 -0.000000 0.000000
RightUpLeg -69.575786 -45.332436 -25.533098
RightLeg 22.873296 -0.000000 -0.000000
RightFoot 44.931053 -15.568649 -4.587286
RightToeBase 32.781760 -0.000000 -0.000000
700
root 5.067010 34.537487 -11.769339 34.717522 -31.733449 -55.786413
Spine 2.657324 22.702176 28.133371
Head 1.365454 4.259692 14.315866
LeftShoulder -22.579247 41.316251 19.067699
LeftArm 57.240679 -53.800775 -73.014589
LeftForeArm 1.084329 -0.000000 2.779576
LeftHand 11.303750 -0.000000 8.618241
LeftHandThumb1 -26.253704 0.000000 33.147579
RightShoulder 6.634819 12.265020 -17.029418
RightArm 20.401667 12.415110 52.801722
RightForeArm 1.588387 -0.000000 7.828498
RightHand 2.398485 -0.000000 4.517671
RightHandThumb1 -24.326973 -0.000000 -32.862282
LeftUpLeg -6.045189 8.575492 41.080198
LeftLeg 14.280318 -0.000000 -0.000000
LeftFoot -14.655385 26.574454 -16.517570
LeftToeBase -4.313991 -0.000000 0.000000
RightUpLeg -70.469905 -45.494642 -24.582317
RightLeg 23.243787 -0.000000 -0.000000
RightFoot 45.040239 -15.277259 -4.388555
RightToeBase 32.801452 -0.000000 -0.000000
701
root 5.063066 34.517068 -11.767039 34.327262 -32.044545 -55.605162
Spine 3.041244 22.666549 27.831628
Head 1.280026 4.164180 14.646178
LeftShoulder -22.585609 41.375418 19.171876
LeftArm 57.381576 -53.805537 -72.993798
LeftForeArm 1.148746 0.000000 2.647858
LeftHand 11.341893 -0.000000 8.540450
LeftHandThumb1 -26.253704 0.000000 33.147579
RightShoulder 6.626655 12.204259 -16.864754
RightArm 20.364239 12.544899 52.857766
RightForeArm 1.355566 -0.000000 8.180402
RightHand 2.421123 -0.000000 4.502685
RightHandThumb1 -24.326973 -0.000000 -32.862282
LeftUpLeg -5.901190 8.466812 40.899405
LeftLeg 14.783600 -0.000000 -0.000000
LeftFoot -14.992965 26.075276 -17.154257
LeftToeBase -4.615121 -0.000000 0.000000
RightUpLeg -71.177951 -45.582539 -23.951528
RightLeg 23.605657 -0.000000 -0.000000
RightFoot 45.183053 -15.111668 -4.109673
RightToeBase 32.831456 -0.000000 -0.000000
